<svg xmlns="http://www.w3.org/2000/svg" width="13" height="23" viewBox="0 0 13 23">
  <metadata><?xpacket begin="﻿" id="W5M0MpCehiHzreSzNTczkc9d"?>
<x:xmpmeta xmlns:x="adobe:ns:meta/" x:xmptk="Adobe XMP Core 5.6-c138 79.159824, 2016/09/14-01:09:01        ">
   <rdf:RDF xmlns:rdf="http://www.w3.org/1999/02/22-rdf-syntax-ns#">
      <rdf:Description rdf:about=""/>
   </rdf:RDF>
</x:xmpmeta>
<?xpacket end="w"?></metadata>
<defs>
    <style>
      .cls-1 {
        fill: #f82908;
      }
    </style>
  </defs>
  <path id="Прямоугольник_скругл._углы_2_копия_2" data-name="Прямоугольник, скругл. углы 2 копия 2" class="cls-1" d="M219.66,455.308l-9.95-9.573c-0.712-.685-0.924-1.592-0.472-2.026a1.651,1.651,0,0,1,2.106.454l9.95,9.572c0.712,0.686.924,1.594,0.473,2.028A1.652,1.652,0,0,1,219.66,455.308Zm1.637-20.065-9.949,9.572a1.653,1.653,0,0,1-2.107.455c-0.451-.434-0.24-1.342.472-2.027l9.95-9.572a1.65,1.65,0,0,1,2.107-.455C222.221,433.649,222.009,434.558,221.3,435.243Z" transform="translate(-209 -433)"/>
</svg>
