<svg xmlns="http://www.w3.org/2000/svg" width="13" height="23" viewBox="0 0 13 23">
  <metadata><?xpacket begin="﻿" id="W5M0MpCehiHzreSzNTczkc9d"?>
<x:xmpmeta xmlns:x="adobe:ns:meta/" x:xmptk="Adobe XMP Core 5.6-c138 79.159824, 2016/09/14-01:09:01        ">
   <rdf:RDF xmlns:rdf="http://www.w3.org/1999/02/22-rdf-syntax-ns#">
      <rdf:Description rdf:about=""/>
   </rdf:RDF>
</x:xmpmeta>
<?xpacket end="w"?></metadata>
<defs>
    <style>
      .cls-1 {
        fill: #f82908;
      }
    </style>
  </defs>
  <path id="Прямоугольник_скругл._углы_2_копия_2" data-name="Прямоугольник, скругл. углы 2 копия 2" class="cls-1" d="M1697.34,433.69l9.95,9.573c0.71,0.685.92,1.593,0.47,2.027a1.643,1.643,0,0,1-2.1-.455l-9.95-9.573c-0.72-.685-0.93-1.592-0.48-2.027A1.656,1.656,0,0,1,1697.34,433.69Zm-1.64,20.066,9.95-9.573a1.656,1.656,0,0,1,2.11-.455c0.45,0.434.24,1.342-.47,2.028l-9.95,9.572a1.656,1.656,0,0,1-2.11.455C1694.78,455.348,1694.99,454.442,1695.7,453.756Z" transform="translate(-1695 -433)"/>
</svg>
